<svg xmlns="http://www.w3.org/2000/svg" viewBox="0 0 75 63.3"><style>.st0{fill:#0078d2}</style><path class="st0" d="M75 16.9c0-3.3-1.1-6.4-2.9-9.1-8-11.5-30-10.1-49.1 3.1S-5 44.1 3 55.6s29.9 10 49-3c.1-.1 0-.2-.1-.1-10.6 6.1-19.9 6.1-24 0s.2-16.4 9.2-22.3c3.1-2.1 6.5-3.6 10.2-4.4l-1.2 6c-.1.2 0 .5.2.6s.5.1.7 0l18.5-10.1c.2-.1.4-.3.4-.6.1-.2 0-.5-.2-.6l-14.5-9.9c-.2-.2-.5-.2-.7-.1s-.4.3-.4.6l-.9 4.5c-6.3.6-12.2 2.8-17.3 6.4-12.4 8.3-17.9 21.7-12.3 30 1.5 2.2 3.7 3.8 6.1 4.8l.4.1v.1c-4.2-.6-8-2.8-10.4-6.3-6.9-9.9.3-26.8 16-37.6s34-11.6 40.9-1.7c1.1 1.5 1.8 3.1 2.2 4.9v.1c0 .1.2.1.2-.1"/><path class="st0" d="M40.6 49.4v-1c-.7 1.2-2 1.9-3.3 1.8-1.4 0-3.1-.9-3.1-4.2v-6.7l2.3-.4v7c-.1.7.1 1.4.6 1.9.9.8 2.5.3 3.5-1.5v-7.1l2.3-.4V50h-1.6c-.5 0-.8-.2-.7-.6-.1 0-.1 0 0 0m25-2.5l2.6-7.9h2.3l-3.9 10.9v.1h-1.8c-.3 0-.5-.2-.6-.4L60.5 39H63l2.6 7.9zM51.9 42l-2.5 8h-1.8c-.3 0-.5-.2-.6-.4L44 39h2.5l2 7.6 2.4-7.6h2.2l2.4 7.6 2-7.6h2.3l-3.1 11H55c-.2 0-.5-.1-.6-.3L51.9 42z"/></svg>