<svg version="1.2" xmlns="http://www.w3.org/2000/svg" viewBox="0 0 1527 610" width="1527" height="610">
	<title>ikea-logo-svg</title>
	<style>
		.s0 { fill: #0058a3 } 
		.s1 { fill: #ffdb00 } 
	</style>
	<path id="Layer" class="s0" d="m0.5 0h1526v610h-1526z"/>
	<path id="Layer" class="s1" d="m30.1 310.7c0 147.8 307.1 270.7 732.4 270.7 425.4 0 732.5-122.9 732.5-270.7 0-147.7-306.1-270.7-731.5-270.7-425.4 0-733.4 123-733.4 270.7z"/>
	<path id="Layer" fill-rule="evenodd" class="s0" d="m1156.4 416.5h-113.5c4.8-5.7 8.6-12.4 10.5-19l67.7-185v-0.9c2.9-5.7 3.9-12.4 3.9-19.1h191.6c-0.9 5.8 0 10.5 2.9 15.3 0 0.9 1 1.9 1 3.8 5.7 13.3 66.7 170.6 71.5 184.9 1.9 6.7 5.7 13.3 10.5 19.1h-143.1c0-6.7-0.9-13.4-4.7-19.1 0 0-2-5.7-5.8-12.4l-0.9-2.9h-83l-0.9 3.9c0 0-2.9 6.6-4.8 12.4l-1 1.9c-0.9 4.7-1.9 11.4-1.9 17.1zm49.6-148.7c-0.9 4.8-1.9 9.6-3.8 14.3 0 1-2.9 7.6-5.7 17.2-3.8 9.5-7.6 21.9-12.4 35.2h47.7l-20.1-51.4c-2.8-5.7-4.7-10.5-5.7-15.3zm-689.5 148.7h-137.3c2.8-5.7 3.8-12.4 2.8-19v-185c1-6.6-0.9-13.3-2.8-19h137.3c-2.9 5.7-3.8 12.4-2.9 19v81.1c0 0 43.9-56.3 54.4-69.6 3.8-4.8 17.2-22.9 17.2-30.5h143c-11.4 8.6-21 18.1-29.6 28.6-7.6 9.5-52.4 62.9-52.4 62.9 0 0 65.8 98.2 74.4 112.5 4.8 6.6 10.5 13.3 16.2 19h-165.9c-2-10.5-6.7-21-13.4-29.5-6.7-9.6-41-61-44.8-66.8v78.2c0 4.8 0.9 11.4 3.8 18.1zm509.3 0h-266.1c2.8-5.7 3.8-12.4 2.8-19v-185c1-6.6-0.9-13.3-2.8-19h265.1v61.9c-5.7-2.8-12.4-3.8-19.1-2.8h-111.5v29.5h107.7v47.7h-107.7v29.5h111.5c6.7 1 13.4-0.9 19.1-2.8zm-712.4 0h-148.8c2.9-5.8 3.8-12.4 2.9-19.1v-184.9c0.9-6.7-1-13.3-2.9-19.1h149.8c-2.9 5.8-3.9 12.4-2.9 19.1v184.9c-1.9 5.7 0 12.4 1.9 19.1zm1063.4-175.4c-8.6 0-16.2-3.8-22-9.5-5.7-5.8-8.5-13.4-7.6-21 0-1 0-1 0-1.9 0-15.3 13.4-27.7 28.6-27.7h1.9c16.2 0 28.6 13.4 28.6 29.6v1.9c0 7.6-3.8 15.2-8.5 20-5.8 4.8-13.4 8.6-21 8.6zm-1.9-54.3c-5.8 0-11.5 2.8-16.2 7.6-3.9 4.8-6.7 10.5-5.8 16.2v1.9c0 12.4 10.5 22.9 23.9 22.9h0.9c6.7 0 12.4-2.9 17.2-7.7 4.8-4.7 6.7-10.4 6.7-17.1v-1c0-12.4-10.5-22.8-23.9-22.8zm-3.8 40.9h-5.7v-35.2h13.3c6.7 0 11.5 4.7 11.5 11.4 0 4.8-2.9 8.6-6.7 10.5l7.6 13.3h-5.7l-6.7-12.3h-7.6zm0-29.6v12.4h7.6c2.9 0 5.8-2.9 5.8-5.7 0-3.8-2.9-6.7-5.8-6.7z"/>
</svg>